<svg
  xmlns="http://www.w3.org/2000/svg"
  viewBox="0 0 32 32"
  fill="white"
>
  <path d="M16.003 3C9.384 3 4 8.383 4 15.002c0 2.644.863 5.09 2.328 7.078L4 29l7.127-2.281a11.97 11.97 0 0 0 4.876 1.02h.001C22.624 27.739 28 22.358 28 15.74 28 9.121 22.624 3 16.003 3zm6.764 16.943c-.286.804-1.442 1.471-2.366 1.668-.63.136-1.453.243-4.224-.909-3.55-1.473-5.841-5.076-6.019-5.313-.175-.238-1.448-1.929-1.448-3.681 0-1.751.917-2.615 1.243-2.974.326-.36.711-.45.949-.45.237 0 .474.003.683.013.218.01.51-.083.8.611.286.694.973 2.397 1.059 2.571.086.174.143.381.029.619-.114.238-.171.381-.343.585-.171.205-.361.456-.515.613-.17.172-.348.361-.149.707.198.345.883 1.455 1.897 2.357 1.304 1.162 2.402 1.522 2.747 1.694.346.173.547.144.748-.087.2-.23.863-1.006 1.094-1.351.23-.344.459-.287.773-.172.314.115 1.99.938 2.33 1.109.343.172.571.257.656.399.086.144.086.829-.2 1.632z"/>
</svg>
